<?xml version="1.0" encoding="UTF-8"?><svg id="a" xmlns="http://www.w3.org/2000/svg" xmlns:xlink="http://www.w3.org/1999/xlink" viewBox="0 0 1000 1000"><defs><style>.cp,.cq,.cr,.cs,.ct,.cu,.cv,.cw,.cx,.cy,.d`,.da,.db,.dc{fill:#048ba8;}.dd,.de,.df,.dg,.dh,.di,.dj,.dk,.dl,.dm{fill:#f18f01;}.dn,.do,.dp{fill:#2e4057;}.do{filter:url(#j);}.dp{filter:url(#l);}.de{filter:url(#p);}.df{filter:url(#f);}.cq{filter:url(#h);}.cr{filter:url(#n);}.dq{filter:url(#v);}.dq,.dr,.ds,.dt,.du,.dv,.dw,.dx,.dy,.e`{stroke:#000;stroke-miterlimit:10;}.dq,.dr,.ds,.dt,.du,.dw,.dy,.e`{stroke-width:.1px;}.dq,.dr,.ds,.dw,.dx{fill:#fff;}.dr{filter:url(#b);}.ds{filter:url(#d);}.ea{filter:url(#bl);}.ea,.eb,.ec,.ed,.cs,.ct{opacity:.68;}.ea,.eb,.ee,.ef{fill:#7700b3;}.eb{filter:url(#bb);}.ec{filter:url(#bf);}.ec,.ed,.eg,.eh{fill:#ff00bf;}.ed{filter:url(#bh);}.cs{filter:url(#bj);}.ct{filter:url(#bd);}.dg{filter:url(#cn);}.dg,.dh,.cu,.cv,.ei,.ej,.ek,.el,.dm,.em,.dc{opacity:.8;}.dh{filter:url(#cd);}.cu{filter:url(#cf);}.cv{filter:url(#cl);}.ei{filter:url(#ch);}.ei,.en,.eo,.ep,.eq,.er,.el{fill:#0e79b2;}.eg{filter:url(#ax);}.eg,.eh,.di,.dj,.dk,.cw,.cx,.cy,.d`,.da,.db,.ee,.ef,.en,.eo,.ep,.eq,.dl{opacity:.7;}.eh{filter:url(#an);}.di{filter:url(#bp);}.dj{filter:url(#c`);}.dk{filter:url(#ah);}.cw{filter:url(#br);}.cx{filter:url(#bx);}.cy{filter:url(#a`);}.d`{filter:url(#av);}.da{filter:url(#af);}.db{filter:url(#ap);}.ee{filter:url(#ar);}.ef{filter:url(#at);}.en{filter:url(#ad);}.eo{filter:url(#ab);}.ep{filter:url(#bt);}.eq{filter:url(#bv);}.er{filter:url(#cj);opacity:.7;}.dl{filter:url(#x);}.dt{filter:url(#t);}.du{filter:url(#r);}.dv{filter:url(#cb);stroke-width:.1px;}.dw{filter:url(#al);}.dx{filter:url(#bn);stroke-width:.1px;}.es,.et,.eu{opacity:.5;}.es,.ej{fill:#2e3192;}.et,.ek{fill:#29abe2;}.eu,.em{fill:#0071bc;}.dy{fill:#272643;filter:url(#b`);}.e`{fill:#0f0f0f;filter:url(#aj);}</style><filter id="b" filterUnits="userSpaceOnUse"><feOffset dx="7" dy="7"/><feGaussianBlur result="c" stdDeviation="5"/><feFlood flood-color="#000" flood-opacity=".3"/><feComposite in2="c" operator="in"/><feComposite in="SourceGraphic"/></filter><filter id="d" filterUnits="userSpaceOnUse"><feOffset dx="7" dy="7"/><feGaussianBlur result="e" stdDeviation="5"/><feFlood flood-color="#000" flood-opacity=".3"/><feComposite in2="e" operator="in"/><feComposite in="SourceGraphic"/></filter><filter id="f" filterUnits="userSpaceOnUse"><feOffset dx="7" dy="3"/><feGaussianBlur result="g" stdDeviation="5"/><feFlood flood-color="#000" flood-opacity=".3"/><feComposite in2="g" operator="in"/><feComposite in="SourceGraphic"/></filter><filter id="h" filterUnits="userSpaceOnUse"><feOffset dx="7" dy="3"/><feGaussianBlur result="i" stdDeviation="5"/><feFlood flood-color="#000" flood-opacity=".3"/><feComposite in2="i" operator="in"/><feComposite in="SourceGraphic"/></filter><filter id="j" filterUnits="userSpaceOnUse"><feOffset dx="7" dy="3"/><feGaussianBlur result="k" stdDeviation="5"/><feFlood flood-color="#000" flood-opacity=".3"/><feComposite in2="k" operator="in"/><feComposite in="SourceGraphic"/></filter><filter id="l" filterUnits="userSpaceOnUse"><feOffset dx="7" dy="3"/><feGaussianBlur result="m" stdDeviation="5"/><feFlood flood-color="#000" flood-opacity=".3"/><feComposite in2="m" operator="in"/><feComposite in="SourceGraphic"/></filter><filter id="n" filterUnits="userSpaceOnUse"><feOffset dx="7" dy="3"/><feGaussianBlur result="o" stdDeviation="5"/><feFlood flood-color="#000" flood-opacity=".3"/><feComposite in2="o" operator="in"/><feComposite in="SourceGraphic"/></filter><filter id="p" filterUnits="userSpaceOnUse"><feOffset dx="7" dy="3"/><feGaussianBlur result="q" stdDeviation="5"/><feFlood flood-color="#000" flood-opacity=".3"/><feComposite in2="q" operator="in"/><feComposite in="SourceGraphic"/></filter><filter id="r" filterUnits="userSpaceOnUse"><feOffset dx="7" dy="7"/><feGaussianBlur result="s" stdDeviation="5"/><feFlood flood-color="#000" flood-opacity=".3"/><feComposite in2="s" operator="in"/><feComposite in="SourceGraphic"/></filter><filter id="t" filterUnits="userSpaceOnUse"><feOffset dx="7" dy="7"/><feGaussianBlur result="u" stdDeviation="5"/><feFlood flood-color="#000" flood-opacity=".3"/><feComposite in2="u" operator="in"/><feComposite in="SourceGraphic"/></filter><filter id="v" filterUnits="userSpaceOnUse"><feOffset dx="7" dy="7"/><feGaussianBlur result="w" stdDeviation="5"/><feFlood flood-color="#000" flood-opacity=".3"/><feComposite in2="w" operator="in"/><feComposite in="SourceGraphic"/></filter><filter id="x" filterUnits="userSpaceOnUse"><feOffset dx="7" dy="3"/><feGaussianBlur result="y" stdDeviation="5"/><feFlood flood-color="#000" flood-opacity=".3"/><feComposite in2="y" operator="in"/><feComposite in="SourceGraphic"/></filter><filter id="a`" filterUnits="userSpaceOnUse"><feOffset dx="7" dy="3"/><feGaussianBlur result="aa" stdDeviation="5"/><feFlood flood-color="#000" flood-opacity=".3"/><feComposite in2="aa" operator="in"/><feComposite in="SourceGraphic"/></filter><filter id="ab" filterUnits="userSpaceOnUse"><feOffset dx="7" dy="3"/><feGaussianBlur result="ac" stdDeviation="5"/><feFlood flood-color="#000" flood-opacity=".3"/><feComposite in2="ac" operator="in"/><feComposite in="SourceGraphic"/></filter><filter id="ad" filterUnits="userSpaceOnUse"><feOffset dx="7" dy="3"/><feGaussianBlur result="ae" stdDeviation="5"/><feFlood flood-color="#000" flood-opacity=".3"/><feComposite in2="ae" operator="in"/><feComposite in="SourceGraphic"/></filter><filter id="af" filterUnits="userSpaceOnUse"><feOffset dx="7" dy="3"/><feGaussianBlur result="ag" stdDeviation="5"/><feFlood flood-color="#000" flood-opacity=".3"/><feComposite in2="ag" operator="in"/><feComposite in="SourceGraphic"/></filter><filter id="ah" filterUnits="userSpaceOnUse"><feOffset dx="7" dy="3"/><feGaussianBlur result="ai" stdDeviation="5"/><feFlood flood-color="#000" flood-opacity=".3"/><feComposite in2="ai" operator="in"/><feComposite in="SourceGraphic"/></filter><filter id="aj" filterUnits="userSpaceOnUse"><feOffset dx="7" dy="7"/><feGaussianBlur result="ak" stdDeviation="5"/><feFlood flood-color="#000" flood-opacity=".3"/><feComposite in2="ak" operator="in"/><feComposite in="SourceGraphic"/></filter><filter id="al" filterUnits="userSpaceOnUse"><feOffset dx="7" dy="7"/><feGaussianBlur result="am" stdDeviation="5"/><feFlood flood-color="#000" flood-opacity=".3"/><feComposite in2="am" operator="in"/><feComposite in="SourceGraphic"/></filter><filter id="an" filterUnits="userSpaceOnUse"><feOffset dx="7" dy="3"/><feGaussianBlur result="ao" stdDeviation="5"/><feFlood flood-color="#000" flood-opacity=".3"/><feComposite in2="ao" operator="in"/><feComposite in="SourceGraphic"/></filter><filter id="ap" filterUnits="userSpaceOnUse"><feOffset dx="7" dy="3"/><feGaussianBlur result="aq" stdDeviation="5"/><feFlood flood-color="#000" flood-opacity=".3"/><feComposite in2="aq" operator="in"/><feComposite in="SourceGraphic"/></filter><filter id="ar" filterUnits="userSpaceOnUse"><feOffset dx="7" dy="3"/><feGaussianBlur result="as" stdDeviation="5"/><feFlood flood-color="#000" flood-opacity=".3"/><feComposite in2="as" operator="in"/><feComposite in="SourceGraphic"/></filter><filter id="at" filterUnits="userSpaceOnUse"><feOffset dx="7" dy="3"/><feGaussianBlur result="au" stdDeviation="5"/><feFlood flood-color="#000" flood-opacity=".3"/><feComposite in2="au" operator="in"/><feComposite in="SourceGraphic"/></filter><filter id="av" filterUnits="userSpaceOnUse"><feOffset dx="7" dy="3"/><feGaussianBlur result="aw" stdDeviation="5"/><feFlood flood-color="#000" flood-opacity=".3"/><feComposite in2="aw" operator="in"/><feComposite in="SourceGraphic"/></filter><filter id="ax" filterUnits="userSpaceOnUse"><feOffset dx="7" dy="3"/><feGaussianBlur result="ay" stdDeviation="5"/><feFlood flood-color="#000" flood-opacity=".3"/><feComposite in2="ay" operator="in"/><feComposite in="SourceGraphic"/></filter><filter id="b`" filterUnits="userSpaceOnUse"><feOffset dx="7" dy="7"/><feGaussianBlur result="ba" stdDeviation="5"/><feFlood flood-color="#000" flood-opacity=".3"/><feComposite in2="ba" operator="in"/><feComposite in="SourceGraphic"/></filter><filter id="bb" filterUnits="userSpaceOnUse"><feOffset dx="7" dy="3"/><feGaussianBlur result="bc" stdDeviation="5"/><feFlood flood-color="#000" flood-opacity=".3"/><feComposite in2="bc" operator="in"/><feComposite in="SourceGraphic"/></filter><filter id="bd" filterUnits="userSpaceOnUse"><feOffset dx="7" dy="3"/><feGaussianBlur result="be" stdDeviation="5"/><feFlood flood-color="#000" flood-opacity=".3"/><feComposite in2="be" operator="in"/><feComposite in="SourceGraphic"/></filter><filter id="bf" filterUnits="userSpaceOnUse"><feOffset dx="7" dy="3"/><feGaussianBlur result="bg" stdDeviation="5"/><feFlood flood-color="#000" flood-opacity=".3"/><feComposite in2="bg" operator="in"/><feComposite in="SourceGraphic"/></filter><filter id="bh" filterUnits="userSpaceOnUse"><feOffset dx="7" dy="3"/><feGaussianBlur result="bi" stdDeviation="5"/><feFlood flood-color="#000" flood-opacity=".3"/><feComposite in2="bi" operator="in"/><feComposite in="SourceGraphic"/></filter><filter id="bj" filterUnits="userSpaceOnUse"><feOffset dx="7" dy="3"/><feGaussianBlur result="bk" stdDeviation="5"/><feFlood flood-color="#000" flood-opacity=".3"/><feComposite in2="bk" operator="in"/><feComposite in="SourceGraphic"/></filter><filter id="bl" filterUnits="userSpaceOnUse"><feOffset dx="7" dy="3"/><feGaussianBlur result="bm" stdDeviation="5"/><feFlood flood-color="#000" flood-opacity=".3"/><feComposite in2="bm" operator="in"/><feComposite in="SourceGraphic"/></filter><filter id="bn" filterUnits="userSpaceOnUse"><feOffset dx="7" dy="7"/><feGaussianBlur result="bo" stdDeviation="5"/><feFlood flood-color="#000" flood-opacity=".3"/><feComposite in2="bo" operator="in"/><feComposite in="SourceGraphic"/></filter><filter id="bp" filterUnits="userSpaceOnUse"><feOffset dx="3.29" dy="1.41"/><feGaussianBlur result="bq" stdDeviation="2.35"/><feFlood flood-color="#000" flood-opacity=".3"/><feComposite in2="bq" operator="in"/><feComposite in="SourceGraphic"/></filter><filter id="br" filterUnits="userSpaceOnUse"><feOffset dx="3.29" dy="1.41"/><feGaussianBlur result="bs" stdDeviation="2.35"/><feFlood flood-color="#000" flood-opacity=".3"/><feComposite in2="bs" operator="in"/><feComposite in="SourceGraphic"/></filter><filter id="bt" filterUnits="userSpaceOnUse"><feOffset dx="3.29" dy="1.41"/><feGaussianBlur result="bu" stdDeviation="2.35"/><feFlood flood-color="#000" flood-opacity=".3"/><feComposite in2="bu" operator="in"/><feComposite in="SourceGraphic"/></filter><filter id="bv" filterUnits="userSpaceOnUse"><feOffset dx="3.29" dy="1.41"/><feGaussianBlur result="bw" stdDeviation="2.35"/><feFlood flood-color="#000" flood-opacity=".3"/><feComposite in2="bw" operator="in"/><feComposite in="SourceGraphic"/></filter><filter id="bx" filterUnits="userSpaceOnUse"><feOffset dx="3.29" dy="1.41"/><feGaussianBlur result="by" stdDeviation="2.35"/><feFlood flood-color="#000" flood-opacity=".3"/><feComposite in2="by" operator="in"/><feComposite in="SourceGraphic"/></filter><filter id="c`" filterUnits="userSpaceOnUse"><feOffset dx="3.29" dy="1.41"/><feGaussianBlur result="ca" stdDeviation="2.35"/><feFlood flood-color="#000" flood-opacity=".3"/><feComposite in2="ca" operator="in"/><feComposite in="SourceGraphic"/></filter><filter id="cb" filterUnits="userSpaceOnUse"><feOffset dx="7" dy="7"/><feGaussianBlur result="cc" stdDeviation="5"/><feFlood flood-color="#000" flood-opacity=".3"/><feComposite in2="cc" operator="in"/><feComposite in="SourceGraphic"/></filter><filter id="cd" filterUnits="userSpaceOnUse"><feOffset dx="3.29" dy="1.41"/><feGaussianBlur result="ce" stdDeviation="2.35"/><feFlood flood-color="#000" flood-opacity=".3"/><feComposite in2="ce" operator="in"/><feComposite in="SourceGraphic"/></filter><filter id="cf" filterUnits="userSpaceOnUse"><feOffset dx="3.29" dy="1.41"/><feGaussianBlur result="cg" stdDeviation="2.35"/><feFlood flood-color="#000" flood-opacity=".3"/><feComposite in2="cg" operator="in"/><feComposite in="SourceGraphic"/></filter><filter id="ch" filterUnits="userSpaceOnUse"><feOffset dx="3.29" dy="1.41"/><feGaussianBlur result="ci" stdDeviation="2.35"/><feFlood flood-color="#000" flood-opacity=".3"/><feComposite in2="ci" operator="in"/><feComposite in="SourceGraphic"/></filter><filter id="cj" filterUnits="userSpaceOnUse"><feOffset dx="3.29" dy="1.41"/><feGaussianBlur result="ck" stdDeviation="2.35"/><feFlood flood-color="#000" flood-opacity=".3"/><feComposite in2="ck" operator="in"/><feComposite in="SourceGraphic"/></filter><filter id="cl" filterUnits="userSpaceOnUse"><feOffset dx="3.29" dy="1.41"/><feGaussianBlur result="cm" stdDeviation="2.35"/><feFlood flood-color="#000" flood-opacity=".3"/><feComposite in2="cm" operator="in"/><feComposite in="SourceGraphic"/></filter><filter id="cn" filterUnits="userSpaceOnUse"><feOffset dx="3.29" dy="1.41"/><feGaussianBlur result="co" stdDeviation="2.35"/><feFlood flood-color="#000" flood-opacity=".3"/><feComposite in2="co" operator="in"/><feComposite in="SourceGraphic"/></filter></defs><rect class="dr" x="71.97" y="432" width="144.06" height="144" rx="25.36" ry="25.36"/><rect class="ds" x="72" y="791.7" width="144.06" height="144" rx="25.36" ry="25.36"/><polygon class="es" points="144.59 921.44 90.53 881.81 137.29 854.81 144.59 921.44"/><polygon class="eu" points="144.63 921.6 110.16 845.4 163.92 840.23 144.63 921.6"/><polygon class="et" points="144.65 921.47 149.15 816.73 200.68 832.86 144.65 921.47"/><circle class="et" cx="180.76" cy="812.62" r="6.81"/><circle class="eu" cx="135.46" cy="826.44" r="6.81"/><circle class="es" cx="98.58" cy="860.75" r="6.81"/><polygon class="df" points="139.94 552.47 86.72 522.45 121.71 494.16 139.94 552.47"/><polygon class="cq" points="139.94 552.47 117.44 480.47 162.44 480.47 139.94 552.47"/><polygon class="do" points="139.94 552.47 167.61 463.93 206.02 487.37 139.94 552.47"/><circle class="dp" cx="194.65" cy="462.81" r="6.81"/><circle class="cr" cx="139.94" cy="465.63" r="6.81"/><circle class="de" cx="92.91" cy="494.32" r="6.81"/><rect class="du" x="290.46" y="432.47" width="144.06" height="144" rx="25.36" ry="25.36"/><rect class="dt" x="286.99" y="792" width="144.06" height="144" rx="25.36" ry="25.36"/><polygon class="ej" points="359.58 921.74 305.52 882.11 352.28 855.11 359.58 921.74"/><polygon class="em" points="359.62 921.89 325.16 845.7 378.91 840.52 359.62 921.89"/><polygon class="ek" points="359.64 921.77 364.14 817.02 415.67 833.15 359.64 921.77"/><circle class="ek" cx="395.76" cy="812.92" r="6.81"/><circle class="em" cx="350.45" cy="826.74" r="6.81"/><circle class="ej" cx="313.57" cy="861.05" r="6.81"/><polygon class="dd" points="360.52 552.95 307.31 522.93 342.3 494.63 360.52 552.95"/><polygon class="cp" points="360.52 552.95 338.02 480.95 383.02 480.95 360.52 552.95"/><polygon class="dn" points="360.52 552.95 388.19 464.4 426.61 487.84 360.52 552.95"/><circle class="dn" cx="415.23" cy="463.28" r="6.81"/><circle class="cp" cx="360.52" cy="466.1" r="6.81"/><circle class="dd" cx="313.49" cy="494.79" r="6.81"/><rect class="dq" x="72" y="72" width="144.06" height="144" rx="25.36" ry="25.36"/><polygon class="dl" points="139.83 192.66 90.77 156.26 129 132.53 139.83 192.66"/><polygon class="cy" points="139.97 192.66 117.47 120.66 162.47 120.66 139.97 192.66"/><polygon class="eo" points="139.76 192.66 159.12 101.93 199.54 121.72 139.76 192.66"/><circle class="en" cx="187.05" cy="101.31" r="6.81"/><circle class="da" cx="139.97" cy="105.63" r="6.81"/><circle class="dk" cx="99.2" cy="132.31" r="6.81"/><rect class="e`" x="288" y="72" width="144.06" height="144" rx="25.36" ry="25.36"/><polygon class="dm" points="355.83 192.66 306.77 156.26 345 132.53 355.83 192.66"/><polygon class="dc" points="355.97 192.66 333.47 120.66 378.47 120.66 355.97 192.66"/><polygon class="el" points="355.76 192.66 375.12 101.93 415.54 121.72 355.76 192.66"/><circle class="el" cx="403.05" cy="101.31" r="6.81"/><circle class="dc" cx="355.97" cy="105.63" r="6.81"/><circle class="dm" cx="315.2" cy="132.31" r="6.81"/><rect class="dw" x="576" y="791.05" width="144.06" height="144" rx="25.36" ry="25.36"/><polygon class="eh" points="646.74 914.9 597.66 878.53 635.88 854.78 646.74 914.9"/><polygon class="db" points="646.88 914.9 624.34 842.91 669.34 842.89 646.88 914.9"/><polygon class="ee" points="646.67 914.9 665.98 824.16 706.41 843.92 646.67 914.9"/><circle class="ef" cx="693.91" cy="823.53" r="6.81"/><circle class="d`" cx="646.83" cy="827.87" r="6.81"/><circle class="eg" cx="606.08" cy="854.58" r="6.81"/><rect class="dy" x="789.35" y="791.7" width="144.06" height="144" rx="25.36" ry="25.36"/><polygon class="eb" points="860.1 915.56 811.01 879.19 849.23 855.44 860.1 915.56"/><polygon class="ct" points="860.23 915.56 837.69 843.57 882.69 843.55 860.23 915.56"/><polygon class="ec" points="860.02 915.56 879.33 824.82 919.76 844.58 860.02 915.56"/><circle class="ed" cx="907.26" cy="824.19" r="6.81"/><circle class="cs" cx="860.18" cy="828.53" r="6.81"/><circle class="ea" cx="819.43" cy="855.24" r="6.81"/><rect class="dx" x="72.39" y="289.15" width="288" height="71.86" rx="14.86" ry="14.86"/><polygon class="di" points="117.17 348.17 94.09 331.04 112.08 319.87 117.17 348.17"/><polygon class="cw" points="117.23 348.17 106.65 314.29 127.82 314.29 117.23 348.17"/><polygon class="ep" points="117.14 348.17 126.25 305.48 145.26 314.79 117.14 348.17"/><circle class="eq" cx="139.39" cy="305.19" r="3.2"/><circle class="cx" cx="117.23" cy="307.22" r="3.2"/><circle class="dj" cx="98.05" cy="319.77" r="3.2"/><g><path class="dn" d="M163.94,315.67h-7.7v-1.01h16.56v1.01h-7.7v22.75h-1.15v-22.75Z"/><path class="dn" d="M177.48,314.66h12.74v1.01h-11.59v9.57h9.72v1.01h-9.72v11.16h11.95v1.01h-13.1v-23.76Z"/><path class="dn" d="M201.1,314.66h1.01l8.5,23.76h-1.22l-4.97-14.25c-1.01-2.88-1.87-5.33-2.74-8.28h-.14c-.86,2.95-1.73,5.4-2.74,8.28l-5.04,14.25h-1.15l8.5-23.76Zm-4.82,14.25h10.55v1.01h-10.55v-1.01Z"/><path class="dn" d="M214.56,314.66h1.87l5.11,14.4c.65,1.8,1.3,3.6,1.94,5.4h.14c.65-1.8,1.22-3.6,1.87-5.4l5.11-14.4h1.87v23.76h-1.15v-16.56c0-1.87,.07-4.25,.14-6.19h-.14l-1.84,5.25-5.36,14.83h-1.22l-5.4-14.83-1.87-5.25h-.14c.07,1.94,.14,4.32,.14,6.19v16.56h-1.08v-23.76Z"/><path class="dn" d="M245.3,326.46c0-7.49,3.96-12.24,10.01-12.24,2.74,0,4.82,1.37,6.05,2.81l-.72,.79c-1.3-1.51-3.1-2.52-5.33-2.52-5.47,0-8.78,4.32-8.78,11.16s3.31,11.3,8.64,11.3c2.52,0,4.39-1.01,6.19-3.02l.72,.72c-1.8,2.09-3.89,3.38-6.98,3.38-5.83,0-9.79-4.9-9.79-12.38Z"/><path class="dn" d="M264.74,326.46c0-7.49,4.03-12.24,9.65-12.24s9.65,4.75,9.65,12.24-4.03,12.38-9.65,12.38-9.65-4.9-9.65-12.38Zm18.07,0c0-6.84-3.38-11.16-8.42-11.16s-8.42,4.32-8.42,11.16,3.38,11.3,8.42,11.3,8.42-4.46,8.42-11.3Z"/><path class="dn" d="M289.66,314.66h1.15v23.76h-1.15v-23.76Z"/><path class="dn" d="M298.01,314.66h1.22l10.51,17.42,2.74,4.68h.14c-.07-2.3-.14-4.46-.14-6.69v-15.41h1.08v23.76h-1.22l-10.51-17.42-2.74-4.68h-.14c.07,2.23,.14,4.25,.14,6.48v15.62h-1.08v-23.76Z"/><path class="dn" d="M318.89,335.25l.79-.79c1.73,2.02,4.25,3.31,7.13,3.31,3.82,0,6.26-2.09,6.26-5.11s-2.02-4.18-4.39-5.26l-3.67-1.66c-2.02-.9-4.82-2.3-4.82-5.83s2.88-5.69,6.7-5.69c2.88,0,5.11,1.33,6.48,2.81l-.72,.79c-1.37-1.51-3.31-2.52-5.76-2.52-3.31,0-5.54,1.8-5.54,4.54,0,2.95,2.48,4.07,4.18,4.82l3.67,1.66c2.63,1.19,5.04,2.59,5.04,6.26s-2.95,6.26-7.42,6.26c-3.53,0-6.12-1.51-7.92-3.6Z"/></g><rect class="dv" x="430.5" y="288.07" width="290.99" height="71.86" rx="14.94" ry="14.94"/><polygon class="dh" points="475.28 347.09 452.2 329.96 470.19 318.8 475.28 347.09"/><polygon class="cu" points="475.35 347.09 464.76 313.22 485.93 313.22 475.35 347.09"/><polygon class="ei" points="475.25 347.09 484.36 304.4 503.37 313.71 475.25 347.09"/><circle class="er" cx="497.5" cy="304.11" r="3.2"/><circle class="cv" cx="475.35" cy="306.14" r="3.2"/><circle class="dg" cx="456.17" cy="318.7" r="3.2"/><g><path class="dd" d="M523.63,316.26h-7.7v-1.01h16.56v1.01h-7.7v22.75h-1.15v-22.75Z"/><path class="dd" d="M537.17,315.25h12.74v1.01h-11.59v9.57h9.72v1.01h-9.72v11.16h11.95v1.01h-13.1v-23.76Z"/><path class="dd" d="M560.78,315.25h1.01l8.5,23.76h-1.22l-4.97-14.25c-1.01-2.88-1.87-5.33-2.74-8.28h-.14c-.86,2.95-1.73,5.4-2.74,8.28l-5.04,14.25h-1.15l8.5-23.76Zm-4.82,14.25h10.55v1.01h-10.55v-1.01Z"/><path class="dd" d="M574.25,315.25h1.87l5.11,14.4c.65,1.8,1.3,3.6,1.94,5.4h.14c.65-1.8,1.22-3.6,1.87-5.4l5.11-14.4h1.87v23.76h-1.15v-16.56c0-1.87,.07-4.25,.14-6.19h-.14l-1.84,5.25-5.36,14.83h-1.22l-5.4-14.83-1.87-5.25h-.14c.07,1.94,.14,4.32,.14,6.19v16.56h-1.08v-23.76Z"/><path class="dd" d="M604.99,327.05c0-7.49,3.96-12.24,10.01-12.24,2.74,0,4.82,1.37,6.05,2.81l-.72,.79c-1.3-1.51-3.1-2.52-5.33-2.52-5.47,0-8.78,4.32-8.78,11.16s3.31,11.3,8.64,11.3c2.52,0,4.39-1.01,6.19-3.02l.72,.72c-1.8,2.09-3.89,3.38-6.98,3.38-5.83,0-9.79-4.9-9.79-12.38Z"/><path class="dd" d="M624.43,327.05c0-7.49,4.03-12.24,9.65-12.24s9.65,4.75,9.65,12.24-4.03,12.38-9.65,12.38-9.65-4.9-9.65-12.38Zm18.07,0c0-6.84-3.38-11.16-8.42-11.16s-8.42,4.32-8.42,11.16,3.38,11.3,8.42,11.3,8.42-4.46,8.42-11.3Z"/><path class="dd" d="M649.34,315.25h1.15v23.76h-1.15v-23.76Z"/><path class="dd" d="M657.7,315.25h1.22l10.51,17.42,2.74,4.68h.14c-.07-2.3-.14-4.46-.14-6.69v-15.41h1.08v23.76h-1.22l-10.51-17.42-2.74-4.68h-.14c.07,2.23,.14,4.25,.14,6.48v15.62h-1.08v-23.76Z"/><path class="dd" d="M678.58,335.84l.79-.79c1.73,2.02,4.25,3.31,7.13,3.31,3.82,0,6.26-2.09,6.26-5.11s-2.02-4.18-4.39-5.26l-3.67-1.66c-2.02-.9-4.82-2.3-4.82-5.83s2.88-5.69,6.7-5.69c2.88,0,5.11,1.33,6.48,2.81l-.72,.79c-1.37-1.51-3.31-2.52-5.76-2.52-3.31,0-5.54,1.8-5.54,4.54,0,2.95,2.48,4.07,4.18,4.82l3.67,1.66c2.63,1.19,5.04,2.59,5.04,6.26s-2.95,6.26-7.42,6.26c-3.53,0-6.12-1.51-7.92-3.6Z"/></g></svg>