<?xml version="1.0" encoding="UTF-8"?><svg xmlns="http://www.w3.org/2000/svg" xmlns:xlink="http://www.w3.org/1999/xlink" viewBox="0 0 681 536"><defs><style>.bl,.bm,.bn,.bo,.bp,.bq,.br,.bs,.bt,.bu{fill:#048ba8;}.bv,.bw,.bx,.by,.c`,.ca,.cb,.cc,.cd,.ce{fill:#f18f01;}.cf,.cg,.ch{fill:#2e4057;}.cg{filter:url(#j);}.ch{filter:url(#l);}.bw{filter:url(#p);}.bx{filter:url(#f);}.bm{filter:url(#h);}.bn{filter:url(#n);}.ci{filter:url(#t);}.ci,.cj,.ck,.cl,.cm,.cn{stroke:#000;stroke-miterlimit:10;}.ci,.cj,.ck,.cn{stroke-width:.1px;}.ci,.cj,.cm{fill:#fff;}.cj{filter:url(#d);}.by{filter:url(#bj);}.by,.c`,.bo,.bp,.co,.cp,.ce,.bu{opacity:.8;}.c`{filter:url(#b`);}.bo{filter:url(#bb);}.bp{filter:url(#bh);}.co{filter:url(#bd);}.co,.cq,.cr,.cs,.ct,.cu,.cp{fill:#0e79b2;}.ca{filter:url(#al);}.ca,.cb,.cc,.bq,.br,.bs,.cq,.cr,.cs,.cu,.cd,.bt{opacity:.7;}.cb{filter:url(#av);}.cc{filter:url(#af);}.bq{filter:url(#an);}.br{filter:url(#at);}.bs{filter:url(#ad);}.cq{filter:url(#ap);}.cr{filter:url(#ar);}.cs{filter:url(#ab);}.ct{filter:url(#bf);opacity:.7;}.cu{filter:url(#a`);}.cd{filter:url(#v);}.bt{filter:url(#x);}.ck{filter:url(#r);}.cl{filter:url(#ax);stroke-width:.1px;}.cm{filter:url(#aj);stroke-width:.1px;}.cn{fill:#0f0f0f;filter:url(#ah);}</style><filter id="d" filterUnits="userSpaceOnUse"><feOffset dx="7" dy="7"/><feGaussianBlur result="e" stdDeviation="5"/><feFlood flood-color="#000" flood-opacity=".3"/><feComposite in2="e" operator="in"/><feComposite in="SourceGraphic"/></filter><filter id="f" filterUnits="userSpaceOnUse"><feOffset dx="7" dy="3"/><feGaussianBlur result="g" stdDeviation="5"/><feFlood flood-color="#000" flood-opacity=".3"/><feComposite in2="g" operator="in"/><feComposite in="SourceGraphic"/></filter><filter id="h" filterUnits="userSpaceOnUse"><feOffset dx="7" dy="3"/><feGaussianBlur result="i" stdDeviation="5"/><feFlood flood-color="#000" flood-opacity=".3"/><feComposite in2="i" operator="in"/><feComposite in="SourceGraphic"/></filter><filter id="j" filterUnits="userSpaceOnUse"><feOffset dx="7" dy="3"/><feGaussianBlur result="k" stdDeviation="5"/><feFlood flood-color="#000" flood-opacity=".3"/><feComposite in2="k" operator="in"/><feComposite in="SourceGraphic"/></filter><filter id="l" filterUnits="userSpaceOnUse"><feOffset dx="7" dy="3"/><feGaussianBlur result="m" stdDeviation="5"/><feFlood flood-color="#000" flood-opacity=".3"/><feComposite in2="m" operator="in"/><feComposite in="SourceGraphic"/></filter><filter id="n" filterUnits="userSpaceOnUse"><feOffset dx="7" dy="3"/><feGaussianBlur result="o" stdDeviation="5"/><feFlood flood-color="#000" flood-opacity=".3"/><feComposite in2="o" operator="in"/><feComposite in="SourceGraphic"/></filter><filter id="p" filterUnits="userSpaceOnUse"><feOffset dx="7" dy="3"/><feGaussianBlur result="q" stdDeviation="5"/><feFlood flood-color="#000" flood-opacity=".3"/><feComposite in2="q" operator="in"/><feComposite in="SourceGraphic"/></filter><filter id="r" filterUnits="userSpaceOnUse"><feOffset dx="7" dy="7"/><feGaussianBlur result="s" stdDeviation="5"/><feFlood flood-color="#000" flood-opacity=".3"/><feComposite in2="s" operator="in"/><feComposite in="SourceGraphic"/></filter><filter id="t" filterUnits="userSpaceOnUse"><feOffset dx="7" dy="7"/><feGaussianBlur result="u" stdDeviation="5"/><feFlood flood-color="#000" flood-opacity=".3"/><feComposite in2="u" operator="in"/><feComposite in="SourceGraphic"/></filter><filter id="v" filterUnits="userSpaceOnUse"><feOffset dx="7" dy="3"/><feGaussianBlur result="w" stdDeviation="5"/><feFlood flood-color="#000" flood-opacity=".3"/><feComposite in2="w" operator="in"/><feComposite in="SourceGraphic"/></filter><filter id="x" filterUnits="userSpaceOnUse"><feOffset dx="7" dy="3"/><feGaussianBlur result="y" stdDeviation="5"/><feFlood flood-color="#000" flood-opacity=".3"/><feComposite in2="y" operator="in"/><feComposite in="SourceGraphic"/></filter><filter id="a`" filterUnits="userSpaceOnUse"><feOffset dx="7" dy="3"/><feGaussianBlur result="aa" stdDeviation="5"/><feFlood flood-color="#000" flood-opacity=".3"/><feComposite in2="aa" operator="in"/><feComposite in="SourceGraphic"/></filter><filter id="ab" filterUnits="userSpaceOnUse"><feOffset dx="7" dy="3"/><feGaussianBlur result="ac" stdDeviation="5"/><feFlood flood-color="#000" flood-opacity=".3"/><feComposite in2="ac" operator="in"/><feComposite in="SourceGraphic"/></filter><filter id="ad" filterUnits="userSpaceOnUse"><feOffset dx="7" dy="3"/><feGaussianBlur result="ae" stdDeviation="5"/><feFlood flood-color="#000" flood-opacity=".3"/><feComposite in2="ae" operator="in"/><feComposite in="SourceGraphic"/></filter><filter id="af" filterUnits="userSpaceOnUse"><feOffset dx="7" dy="3"/><feGaussianBlur result="ag" stdDeviation="5"/><feFlood flood-color="#000" flood-opacity=".3"/><feComposite in2="ag" operator="in"/><feComposite in="SourceGraphic"/></filter><filter id="ah" filterUnits="userSpaceOnUse"><feOffset dx="7" dy="7"/><feGaussianBlur result="ai" stdDeviation="5"/><feFlood flood-color="#000" flood-opacity=".3"/><feComposite in2="ai" operator="in"/><feComposite in="SourceGraphic"/></filter><filter id="aj" filterUnits="userSpaceOnUse"><feOffset dx="7" dy="7"/><feGaussianBlur result="ak" stdDeviation="5"/><feFlood flood-color="#000" flood-opacity=".3"/><feComposite in2="ak" operator="in"/><feComposite in="SourceGraphic"/></filter><filter id="al" filterUnits="userSpaceOnUse"><feOffset dx="3.29" dy="1.41"/><feGaussianBlur result="am" stdDeviation="2.35"/><feFlood flood-color="#000" flood-opacity=".3"/><feComposite in2="am" operator="in"/><feComposite in="SourceGraphic"/></filter><filter id="an" filterUnits="userSpaceOnUse"><feOffset dx="3.29" dy="1.41"/><feGaussianBlur result="ao" stdDeviation="2.35"/><feFlood flood-color="#000" flood-opacity=".3"/><feComposite in2="ao" operator="in"/><feComposite in="SourceGraphic"/></filter><filter id="ap" filterUnits="userSpaceOnUse"><feOffset dx="3.29" dy="1.41"/><feGaussianBlur result="aq" stdDeviation="2.35"/><feFlood flood-color="#000" flood-opacity=".3"/><feComposite in2="aq" operator="in"/><feComposite in="SourceGraphic"/></filter><filter id="ar" filterUnits="userSpaceOnUse"><feOffset dx="3.29" dy="1.41"/><feGaussianBlur result="as" stdDeviation="2.35"/><feFlood flood-color="#000" flood-opacity=".3"/><feComposite in2="as" operator="in"/><feComposite in="SourceGraphic"/></filter><filter id="at" filterUnits="userSpaceOnUse"><feOffset dx="3.29" dy="1.41"/><feGaussianBlur result="au" stdDeviation="2.35"/><feFlood flood-color="#000" flood-opacity=".3"/><feComposite in2="au" operator="in"/><feComposite in="SourceGraphic"/></filter><filter id="av" filterUnits="userSpaceOnUse"><feOffset dx="3.29" dy="1.41"/><feGaussianBlur result="aw" stdDeviation="2.35"/><feFlood flood-color="#000" flood-opacity=".3"/><feComposite in2="aw" operator="in"/><feComposite in="SourceGraphic"/></filter><filter id="ax" filterUnits="userSpaceOnUse"><feOffset dx="7" dy="7"/><feGaussianBlur result="ay" stdDeviation="5"/><feFlood flood-color="#000" flood-opacity=".3"/><feComposite in2="ay" operator="in"/><feComposite in="SourceGraphic"/></filter><filter id="b`" filterUnits="userSpaceOnUse"><feOffset dx="3.29" dy="1.41"/><feGaussianBlur result="ba" stdDeviation="2.35"/><feFlood flood-color="#000" flood-opacity=".3"/><feComposite in2="ba" operator="in"/><feComposite in="SourceGraphic"/></filter><filter id="bb" filterUnits="userSpaceOnUse"><feOffset dx="3.29" dy="1.41"/><feGaussianBlur result="bc" stdDeviation="2.35"/><feFlood flood-color="#000" flood-opacity=".3"/><feComposite in2="bc" operator="in"/><feComposite in="SourceGraphic"/></filter><filter id="bd" filterUnits="userSpaceOnUse"><feOffset dx="3.29" dy="1.41"/><feGaussianBlur result="be" stdDeviation="2.35"/><feFlood flood-color="#000" flood-opacity=".3"/><feComposite in2="be" operator="in"/><feComposite in="SourceGraphic"/></filter><filter id="bf" filterUnits="userSpaceOnUse"><feOffset dx="3.29" dy="1.41"/><feGaussianBlur result="bg" stdDeviation="2.35"/><feFlood flood-color="#000" flood-opacity=".3"/><feComposite in2="bg" operator="in"/><feComposite in="SourceGraphic"/></filter><filter id="bh" filterUnits="userSpaceOnUse"><feOffset dx="3.29" dy="1.41"/><feGaussianBlur result="bi" stdDeviation="2.35"/><feFlood flood-color="#000" flood-opacity=".3"/><feComposite in2="bi" operator="in"/><feComposite in="SourceGraphic"/></filter><filter id="bj" filterUnits="userSpaceOnUse"><feOffset dx="3.29" dy="1.41"/><feGaussianBlur result="bk" stdDeviation="2.35"/><feFlood flood-color="#000" flood-opacity=".3"/><feComposite in2="bk" operator="in"/><feComposite in="SourceGraphic"/></filter></defs><g id="a"/><g id="b"><g id="c"><rect class="cj" x="8.97" y="369" width="144.06" height="144" rx="25.36" ry="25.36"/><polygon class="bx" points="76.94 489.47 23.72 459.45 58.71 431.16 76.94 489.47"/><polygon class="bm" points="76.94 489.47 54.44 417.47 99.44 417.47 76.94 489.47"/><polygon class="cg" points="76.94 489.47 104.61 400.93 143.02 424.37 76.94 489.47"/><circle class="ch" cx="131.65" cy="399.81" r="6.81"/><circle class="bn" cx="76.94" cy="402.63" r="6.81"/><circle class="bw" cx="29.91" cy="431.32" r="6.81"/><rect class="ck" x="227.46" y="369.47" width="144.06" height="144" rx="25.36" ry="25.36"/><polygon class="bv" points="297.52 489.95 244.31 459.93 279.3 431.63 297.52 489.95"/><polygon class="bl" points="297.52 489.95 275.02 417.95 320.02 417.95 297.52 489.95"/><polygon class="cf" points="297.52 489.95 325.19 401.4 363.61 424.84 297.52 489.95"/><circle class="cf" cx="352.23" cy="400.28" r="6.81"/><circle class="bl" cx="297.52" cy="403.1" r="6.81"/><circle class="bv" cx="250.49" cy="431.79" r="6.81"/><rect class="ci" x="9" y="9" width="144.06" height="144" rx="25.36" ry="25.36"/><polygon class="cd" points="76.83 129.66 27.77 93.26 66 69.53 76.83 129.66"/><polygon class="bt" points="76.97 129.66 54.47 57.66 99.47 57.66 76.97 129.66"/><polygon class="cu" points="76.76 129.66 96.12 38.93 136.54 58.72 76.76 129.66"/><circle class="cs" cx="124.05" cy="38.31" r="6.81"/><circle class="bs" cx="76.97" cy="42.63" r="6.81"/><circle class="cc" cx="36.2" cy="69.31" r="6.81"/><rect class="cn" x="225" y="9" width="144.06" height="144" rx="25.36" ry="25.36"/><polygon class="ce" points="292.83 129.66 243.77 93.26 282 69.53 292.83 129.66"/><polygon class="bu" points="292.97 129.66 270.47 57.66 315.47 57.66 292.97 129.66"/><polygon class="cp" points="292.76 129.66 312.12 38.93 352.54 58.72 292.76 129.66"/><circle class="cp" cx="340.05" cy="38.31" r="6.81"/><circle class="bu" cx="292.97" cy="42.63" r="6.81"/><circle class="ce" cx="252.2" cy="69.31" r="6.81"/><rect class="cm" x="9.39" y="226.15" width="288" height="71.86" rx="14.86" ry="14.86"/><polygon class="ca" points="54.17 285.17 31.09 268.04 49.08 256.87 54.17 285.17"/><polygon class="bq" points="54.23 285.17 43.65 251.29 64.82 251.29 54.23 285.17"/><polygon class="cq" points="54.14 285.17 63.25 242.48 82.26 251.79 54.14 285.17"/><circle class="cr" cx="76.39" cy="242.19" r="3.2"/><circle class="br" cx="54.23" cy="244.22" r="3.2"/><circle class="cb" cx="35.05" cy="256.77" r="3.2"/><g><path class="cf" d="M100.94,252.67h-7.7v-1.01h16.56v1.01h-7.7v22.75h-1.15v-22.75Z"/><path class="cf" d="M114.48,251.66h12.74v1.01h-11.59v9.57h9.72v1.01h-9.72v11.16h11.95v1.01h-13.1v-23.76Z"/><path class="cf" d="M138.1,251.66h1.01l8.5,23.76h-1.22l-4.97-14.25c-1.01-2.88-1.87-5.33-2.74-8.28h-.14c-.86,2.95-1.73,5.4-2.74,8.28l-5.04,14.25h-1.15l8.5-23.76Zm-4.82,14.25h10.55v1.01h-10.55v-1.01Z"/><path class="cf" d="M151.56,251.66h1.87l5.11,14.4c.65,1.8,1.3,3.6,1.94,5.4h.14c.65-1.8,1.22-3.6,1.87-5.4l5.11-14.4h1.87v23.76h-1.15v-16.56c0-1.87,.07-4.25,.14-6.19h-.14l-1.84,5.25-5.36,14.83h-1.22l-5.4-14.83-1.87-5.25h-.14c.07,1.94,.14,4.32,.14,6.19v16.56h-1.08v-23.76Z"/><path class="cf" d="M182.3,263.46c0-7.49,3.96-12.24,10.01-12.24,2.74,0,4.82,1.37,6.05,2.81l-.72,.79c-1.3-1.51-3.1-2.52-5.33-2.52-5.47,0-8.78,4.32-8.78,11.16s3.31,11.3,8.64,11.3c2.52,0,4.39-1.01,6.19-3.02l.72,.72c-1.8,2.09-3.89,3.38-6.98,3.38-5.83,0-9.79-4.9-9.79-12.38Z"/><path class="cf" d="M201.74,263.46c0-7.49,4.03-12.24,9.65-12.24s9.65,4.75,9.65,12.24-4.03,12.38-9.65,12.38-9.65-4.9-9.65-12.38Zm18.07,0c0-6.84-3.38-11.16-8.42-11.16s-8.42,4.32-8.42,11.16,3.38,11.3,8.42,11.3,8.42-4.46,8.42-11.3Z"/><path class="cf" d="M226.66,251.66h1.15v23.76h-1.15v-23.76Z"/><path class="cf" d="M235.01,251.66h1.22l10.51,17.42,2.74,4.68h.14c-.07-2.3-.14-4.46-.14-6.69v-15.41h1.08v23.76h-1.22l-10.51-17.42-2.74-4.68h-.14c.07,2.23,.14,4.25,.14,6.48v15.62h-1.08v-23.76Z"/><path class="cf" d="M255.89,272.25l.79-.79c1.73,2.02,4.25,3.31,7.13,3.31,3.82,0,6.26-2.09,6.26-5.11s-2.02-4.18-4.39-5.26l-3.67-1.66c-2.02-.9-4.82-2.3-4.82-5.83s2.88-5.69,6.7-5.69c2.88,0,5.11,1.33,6.48,2.81l-.72,.79c-1.37-1.51-3.31-2.52-5.76-2.52-3.31,0-5.54,1.8-5.54,4.54,0,2.95,2.48,4.07,4.18,4.82l3.67,1.66c2.63,1.19,5.04,2.59,5.04,6.26s-2.95,6.26-7.42,6.26c-3.53,0-6.12-1.51-7.92-3.6Z"/></g><rect class="cl" x="367.5" y="225.07" width="290.99" height="71.86" rx="14.94" ry="14.94"/><polygon class="c`" points="412.28 284.09 389.2 266.96 407.19 255.8 412.28 284.09"/><polygon class="bo" points="412.35 284.09 401.76 250.22 422.93 250.22 412.35 284.09"/><polygon class="co" points="412.25 284.09 421.36 241.4 440.37 250.71 412.25 284.09"/><circle class="ct" cx="434.5" cy="241.11" r="3.2"/><circle class="bp" cx="412.35" cy="243.14" r="3.2"/><circle class="by" cx="393.17" cy="255.7" r="3.2"/><g><path class="bv" d="M460.63,253.26h-7.7v-1.01h16.56v1.01h-7.7v22.75h-1.15v-22.75Z"/><path class="bv" d="M474.17,252.25h12.74v1.01h-11.59v9.57h9.72v1.01h-9.72v11.16h11.95v1.01h-13.1v-23.76Z"/><path class="bv" d="M497.78,252.25h1.01l8.5,23.76h-1.22l-4.97-14.25c-1.01-2.88-1.87-5.33-2.74-8.28h-.14c-.86,2.95-1.73,5.4-2.74,8.28l-5.04,14.25h-1.15l8.5-23.76Zm-4.82,14.25h10.55v1.01h-10.55v-1.01Z"/><path class="bv" d="M511.25,252.25h1.87l5.11,14.4c.65,1.8,1.3,3.6,1.94,5.4h.14c.65-1.8,1.22-3.6,1.87-5.4l5.11-14.4h1.87v23.76h-1.15v-16.56c0-1.87,.07-4.25,.14-6.19h-.14l-1.84,5.25-5.36,14.83h-1.22l-5.4-14.83-1.87-5.25h-.14c.07,1.94,.14,4.32,.14,6.19v16.56h-1.08v-23.76Z"/><path class="bv" d="M541.99,264.05c0-7.49,3.96-12.24,10.01-12.24,2.74,0,4.82,1.37,6.05,2.81l-.72,.79c-1.3-1.51-3.1-2.52-5.33-2.52-5.47,0-8.78,4.32-8.78,11.16s3.31,11.3,8.64,11.3c2.52,0,4.39-1.01,6.19-3.02l.72,.72c-1.8,2.09-3.89,3.38-6.98,3.38-5.83,0-9.79-4.9-9.79-12.38Z"/><path class="bv" d="M561.43,264.05c0-7.49,4.03-12.24,9.65-12.24s9.65,4.75,9.65,12.24-4.03,12.38-9.65,12.38-9.65-4.9-9.65-12.38Zm18.07,0c0-6.84-3.38-11.16-8.42-11.16s-8.42,4.32-8.42,11.16,3.38,11.3,8.42,11.3,8.42-4.46,8.42-11.3Z"/><path class="bv" d="M586.34,252.25h1.15v23.76h-1.15v-23.76Z"/><path class="bv" d="M594.7,252.25h1.22l10.51,17.42,2.74,4.68h.14c-.07-2.3-.14-4.46-.14-6.69v-15.41h1.08v23.76h-1.22l-10.51-17.42-2.74-4.68h-.14c.07,2.23,.14,4.25,.14,6.48v15.62h-1.08v-23.76Z"/><path class="bv" d="M615.58,272.84l.79-.79c1.73,2.02,4.25,3.31,7.13,3.31,3.82,0,6.26-2.09,6.26-5.11s-2.02-4.18-4.39-5.26l-3.67-1.66c-2.02-.9-4.82-2.3-4.82-5.83s2.88-5.69,6.7-5.69c2.88,0,5.11,1.33,6.48,2.81l-.72,.79c-1.37-1.51-3.31-2.52-5.76-2.52-3.31,0-5.54,1.8-5.54,4.54,0,2.95,2.48,4.07,4.18,4.82l3.67,1.66c2.63,1.19,5.04,2.59,5.04,6.26s-2.95,6.26-7.42,6.26c-3.53,0-6.12-1.51-7.92-3.6Z"/></g></g></g></svg>